<?xml version="1.0" encoding="UTF-8" standalone="no"?>
<!-- Created with Inkscape (http://www.inkscape.org/) -->
<svg xmlns:rdf="http://www.w3.org/1999/02/22-rdf-syntax-ns#" xmlns="http://www.w3.org/2000/svg" height="32" width="32" version="1.1" xmlns:cc="http://creativecommons.org/ns#" xmlns:dc="http://purl.org/dc/elements/1.1/">
 <metadata>
  <rdf:RDF>
   <cc:Work rdf:about="">
    <dc:format>image/svg+xml</dc:format>
    <dc:type rdf:resource="http://purl.org/dc/dcmitype/StillImage"/>
    <dc:title/>
   </cc:Work>
  </rdf:RDF>
 </metadata>
 <g transform="translate(580.71429,-1.576468)">
  <path fill="#000" d="m-572.71,2.5765c-1.108,0-2,0.892-2,2v4c0,1.108,0.892,2,2,2s2-0.892,2-2v-4c0-1.108-0.892-2-2-2zm16,0c-1.108,0-2,0.892-2,2v4c0,1.108,0.892,2,2,2s2-0.892,2-2v-4c0-1.108-0.892-2-2-2zm-13,4,0,2c0,1.662-1.338,3-3,3s-3-1.338-3-3v-1.875c-1.728,0.44254-3,2.0052-3,3.875v16c0,2.216,1.784,4,4,4h20c2.216,0,4-1.784,4-4v-16c0-1.8698-1.272-3.4325-3-3.875v1.875c0,1.662-1.338,3-3,3s-3-1.338-3-3v-2h-10zm-5.9062,9,21.812,0c0.0554,0,0.0937,0.03835,0.0937,0.09375v11.812c0,0.0554-0.0384,0.09375-0.0937,0.09375h-21.812c-0.0554,0-0.0937-0.03835-0.0937-0.09375v-11.812c0-0.0554,0.0384-0.09375,0.0937-0.09375z"/>
  <path fill="#FFF" d="m-572.71,3.5765c-1.108,0-2,0.892-2,2v4c0,1.108,0.892,2,2,2s2-0.892,2-2v-4c0-1.108-0.892-2-2-2zm16,0c-1.108,0-2,0.892-2,2v4c0,1.108,0.892,2,2,2s2-0.892,2-2v-4c0-1.108-0.892-2-2-2zm-13,4,0,2c0,1.662-1.338,3-3,3s-3-1.338-3-3v-1.875c-1.728,0.44254-3,2.0052-3,3.875v16c0,2.216,1.784,4,4,4h20c2.216,0,4-1.784,4-4v-16c0-1.8698-1.272-3.4325-3-3.875v1.875c0,1.662-1.338,3-3,3s-3-1.338-3-3v-2h-10zm-5.9062,9,21.812,0c0.0554,0,0.0937,0.03835,0.0937,0.09375v11.812c0,0.0554-0.0384,0.09375-0.0937,0.09375h-21.812c-0.0554,0-0.0937-0.03835-0.0937-0.09375v-11.812c0-0.0554,0.0384-0.09375,0.0937-0.09375z"/>
  <text style="letter-spacing:0px;word-spacing:0px;" font-weight="normal" xml:space="preserve" font-size="40px" font-style="normal" y="26.076469" x="-572.67859" font-family="eurostile" line-height="125%" fill="#000000"><tspan font-size="12px" y="26.076469" x="-572.67859" font-family="Segoe UI">.ics</tspan></text>
  <text style="letter-spacing:0px;word-spacing:0px;" line-height="125%" font-weight="normal" font-size="40px" font-style="normal" y="26.701464" x="-572.67859" font-family="eurostile" xml:space="preserve" fill="#ffffff"><tspan font-size="12px" y="26.701464" x="-572.67859" font-family="Segoe UI" fill="#ffffff">.ics</tspan></text>
 </g>
</svg>
